# xmcd
#
# Track frame offsets: 
#        150
#        11553
#        20837
#        32327
#        44627
#        58616
#        68344
#        79917
#        88747
#        100948
#        112189
#        125120
#        132090
#        139428
#        152343
#        157870
#        168729
#        180825
#        191911
#        199780
#        210466
#        223222
#        233650
#        247267
#        258940
#
# Disc length: 3605 seconds
#
# Revision: 2
# Processed by: cddbd v1.5.2PL0 Copyright (c) Steve Scherf et al.
# Submitted via: ExactAudioCopyFreeDBPlugin 1.0
#
DISCID=660e1319
DTITLE=George Jones - White Lightnin'
DYEAR=2002
DGENRE=Country
TTITLE0=White Lightnin'
TTITLE1=World's Worst Loser
TTITLE2=I Can't Change Overnight
TTITLE3=A Lifetime To Regret
TTITLE4=A Good Year For The Roses
TTITLE5=Back In My Baby's Arms
TTITLE6=She Thinks I Still Care
TTITLE7=Please Don't Let That Woman Get Me
TTITLE8=The Selfishness In Man
TTITLE9=There's No Justice
TTITLE10=Things Have Gonna To Pieces
TTITLE11=Ways Of The World
TTITLE12=Jambalaya
TTITLE13=Wedding Bells
TTITLE14=Liberty
TTITLE15=Don't You Ever Get Tired Of Hurting Me
TTITLE16=My Favourite Lies
TTITLE17=Tarnished Angel
TTITLE18=Yes, I Know Why
TTITLE19=(Your Tender Years) Tender Days
TTITLE20=When I Woke Up From Dreaming
TTITLE21=Let A Little Lovin' Come In
TTITLE22=Hearts In My Dream
TTITLE23=Least Of All
TTITLE24=A House Without Love Is Not A Home
EXTD=
EXTT0=
EXTT1=
EXTT2=
EXTT3=
EXTT4=
EXTT5=
EXTT6=
EXTT7=
EXTT8=
EXTT9=
EXTT10=
EXTT11=
EXTT12=
EXTT13=
EXTT14=
EXTT15=
EXTT16=
EXTT17=
EXTT18=
EXTT19=
EXTT20=
EXTT21=
EXTT22=
EXTT23=
EXTT24=
PLAYORDER=
